<svg width="1159" height="458" viewBox="0 0 1159 458" fill="none" xmlns="http://www.w3.org/2000/svg">
<path d="M17.8604 65.3301H65.7703V193.83L126.75 65.3301H174.66L117.6 177.27L175.53 370.23H125.44L84.9304 234.33L65.7604 273.1V370.23H17.8604V65.3301Z" fill="#1E1E1E"/>
<path d="M198.18 65.3301H328.85V108.89H246.09V189.47H311.86V233.03H246.09V326.68H328.85V370.24H198.18V65.3301Z" fill="#1E1E1E"/>
<path d="M356.29 65.3301H426.85C474.76 65.3301 498.28 91.9001 498.28 140.68V170.73C498.28 219.52 474.76 246.09 426.85 246.09H404.2V370.23H356.29V65.3301ZM426.85 202.53C442.1 202.53 450.37 195.56 450.37 173.78V137.63C450.37 115.85 442.09 108.88 426.85 108.88H404.2V202.53H426.85Z" fill="#1E1E1E"/>
<path d="M524.41 65.3301H594.97C642.88 65.3301 666.4 91.9001 666.4 140.68V170.73C666.4 219.52 642.88 246.09 594.97 246.09H572.32V370.23H524.41V65.3301ZM594.98 202.53C610.23 202.53 618.5 195.56 618.5 173.78V137.63C618.5 115.85 610.22 108.88 594.98 108.88H572.33V202.53H594.98Z" fill="#1E1E1E"/>
<path d="M692.54 65.3301H740.45V326.68H819.29V370.24H692.54V65.3301Z" fill="#1E1E1E"/>
<path d="M842.37 65.3301H973.04V108.89H890.28V189.47H956.05V233.03H890.28V326.68H973.04V370.24H842.37V65.3301Z" fill="#1E1E1E"/>
<path d="M1000.48 65.3301H1071.48C1121.14 65.3301 1142.48 88.4201 1142.48 135.46V154.19C1142.48 185.55 1132.46 205.59 1111.12 214.3V215.17C1135.08 222.57 1142.92 245.22 1142.92 279.64V333.22C1142.92 348.03 1143.36 358.92 1148.15 370.24H1099.36C1096.75 362.4 1095 357.61 1095 332.78V277.03C1095 248.72 1086.72 239.57 1064.95 239.57H1048.4V370.24H1000.49V65.3301H1000.48ZM1065.82 196C1083.68 196 1094.57 188.16 1094.57 163.77V140.25C1094.57 118.47 1087.16 108.89 1070.18 108.89H1048.4V196.01H1065.82V196Z" fill="#1E1E1E"/>
</svg>
